<?xml version="1.0" encoding="iso-8859-1"?>
<!-- Generator: Adobe Illustrator 19.0.0, SVG Export Plug-In . SVG Version: 6.00 Build 0)  -->
<svg version="1.1" id="Layer_1" xmlns="http://www.w3.org/2000/svg" xmlns:xlink="http://www.w3.org/1999/xlink" x="0px" y="0px"
	 viewBox="0 0 512 512" style="enable-background:new 0 0 512 512;" xml:space="preserve">
<polygon style="fill:#D80027;" points="512,153.602 358.4,153.602 358.4,0 153.6,0 153.6,153.602 0,153.602 0,358.402 
	153.6,358.402 153.6,512 358.4,512 358.4,358.402 512,358.402 "/>
<polygon style="fill:#A2001D;" points="358.4,153.602 358.4,0 256,0 256,512 358.4,512 358.4,358.402 512,358.402 512,153.602 "/>
<path style="fill:#FFFFFF;" d="M342.596,201.313c-20.171-18.942-51.878-17.947-70.822,2.222L256,220.334l-15.775-16.797
	c-18.944-20.169-50.65-21.164-70.822-2.222c-20.171,18.944-21.164,50.652-2.222,70.822L256,358.4l88.818-86.263
	C363.762,251.965,362.767,220.257,342.596,201.313z"/>
<g>
</g>
<g>
</g>
<g>
</g>
<g>
</g>
<g>
</g>
<g>
</g>
<g>
</g>
<g>
</g>
<g>
</g>
<g>
</g>
<g>
</g>
<g>
</g>
<g>
</g>
<g>
</g>
<g>
</g>
</svg>
